<?xml version="1.0" encoding="utf-8" ?><svg xmlns="http://www.w3.org/2000/svg" xmlns:xlink="http://www.w3.org/1999/xlink" width="1024" height="1024" viewBox="0 0 1024 1024"><path fill="#1A3A5C" d="M281.85 420.427C282.5 425.196 280.159 434.1 280.166 439.357C279.944 442.252 279.752 445.261 279.658 448.155C277.058 528.523 307.706 613.974 348.896 682.261C393.655 756.464 456.494 825.477 515.284 888.473C502.512 888.646 482.17 885.162 469.615 882.622C427.688 874.614 387.981 857.66 353.2 832.916C290.322 788.04 244.822 719.805 232.106 643.188C222.272 581.871 231.257 519.013 257.876 462.906C263.846 450.011 273.595 431.951 281.85 420.427Z"/><path fill="#0D0D0D" d="M438.741 434.449C438.786 436.1 437.687 437.991 436.965 439.623C432.914 448.551 429.575 457.785 426.981 467.239C421.291 488.987 418.829 511.454 419.672 533.918C420.892 571.813 435.448 608.111 457.422 638.509C461.483 644.127 467.929 653.852 472.774 658.384C479.46 650.936 485.05 641.323 491.942 633.528C549.703 568.205 632.317 531.476 718.445 523.967C723.844 523.497 736.578 521.951 741.459 523.42C745.06 526.211 773.625 580.646 777.219 587.544C766.208 596.342 756.149 605.031 745.496 614.148C739.997 618.908 734.368 623.516 728.615 627.966C720.508 626.584 709.48 623.041 700.673 621.252C673.12 615.61 644.898 613.971 616.877 616.385C549.253 622.852 486.271 653.635 439.623 703.02C432.114 710.845 425.042 720.594 418.073 729.017C414.204 725.163 409.607 717.051 406.988 712.119C392.318 684.494 383.921 654.58 381.056 623.454C374.704 554.441 395.301 488.027 438.741 434.449Z"/><path fill="#1A3A5C" d="M340.098 493.834C322.044 446.561 307.361 394.298 295.938 344.857C295.407 342.557 308.59 313.24 310.901 308.08C338.56 247.283 370.61 188.581 406.796 132.44C415.42 119.051 425.087 103.261 434.512 90.5072C441.941 130.967 449.078 171.479 455.923 212.041C459.087 231.552 462.517 251.018 466.212 270.435C467.787 278.938 469.705 291.41 471.868 299.535C461.676 312.321 450.931 326.152 440.438 338.609C419.946 362.909 398.603 386.479 376.448 409.273C382.414 372.246 388.63 335.259 395.096 298.316L404.141 242.676C407.769 221.112 412.863 195.885 415.607 174.557C415.788 173.577 416.21 171.852 415.925 170.893C415.54 170.619 415.173 171.658 415.04 171.905C392.047 213.079 370.265 254.918 349.72 297.367C343.727 309.796 332.107 332.603 327.963 344.779C334.413 369.209 340.617 393.704 346.574 418.258C348.883 428.125 351.331 437.96 353.917 447.758C354.915 451.549 356.361 457.835 357.797 461.261C351.803 472.067 345.903 482.925 340.098 493.834Z"/><path fill="#1A3A5C" d="M607.123 652.696L607.364 653.04C601.786 659.283 592.83 666.465 586.416 673.453C549.373 713.809 530.423 764.411 526.308 818.608C525.371 830.941 525.779 842.877 526.199 855.128C512.632 839.91 498.941 824.804 485.127 809.809L452.518 773.979C448.328 769.41 443.924 765.046 439.879 760.363C440.822 758.68 441.907 756.986 442.989 755.39C481.471 698.595 541.136 666.168 607.123 652.696Z"/><path fill="#0D0D0D" d="M686.032 457.02C691.447 458.098 700.083 460.812 705.509 462.374C717.597 465.838 729.664 469.376 741.708 472.987C770.871 481.777 799.895 491.022 828.769 500.717C839.608 504.332 850.773 507.719 861.496 511.557C855.154 523.256 845.148 539.155 838.19 550.755C823.49 575.463 808.602 600.06 793.526 624.541C791.232 628.278 778.094 650.931 776.529 651.865C760.652 661.335 731.426 672.665 716.568 682.743C711.598 681.521 704.566 679.06 699.537 677.48C690.292 674.599 681.028 671.785 671.743 669.037C653.059 663.166 634.295 657.554 615.457 652.203C650.044 645.223 697.544 647.325 731.768 654.907C741.798 645.485 753.165 637.026 763.805 628.327C776.21 618.185 788.135 607.463 800.887 597.729C805.006 594.585 809.381 591.221 812.761 587.299C808.743 580.906 804.044 571.668 800.276 564.903C791.902 549.921 783.086 535.191 773.84 520.731C765.977 508.413 756.015 491.458 742.988 484.026C735.798 479.924 725.31 477.677 717.352 474.422C705.848 469.717 696.404 463.738 686.032 457.02Z"/><path fill="#0D0D0D" d="M528.251 144.458C529.296 144.466 529.079 144.665 529.711 144.228C531.11 146.958 531.571 157.942 532.486 161.876C536.173 177.725 537.661 194.509 540.018 210.597L547.008 256.701C548.954 270.281 551.195 283.796 553.349 297.345C553.889 300.746 554.365 304.447 555.803 307.571C556.646 309.401 555.51 310.18 556.28 312.574C554.917 312.409 545.76 309.023 543.888 308.366C530.137 303.541 516.204 298.597 502.78 292.908C500.172 285.144 497.799 274.243 495.856 266.121C492.016 249.446 487.984 232.816 483.761 216.234C489.788 205.059 500.149 190.118 506.958 178.566C511.314 171.175 523.465 150.34 528.251 144.458Z"/><path fill="#0D0D0D" d="M601.838 413.196C602.549 413.074 603.303 412.949 604.026 413.032C609.807 413.7 643.751 450.712 648.581 457.766C631.58 459.822 607.973 463.232 591.106 464.049C586.008 461.16 580.854 458.37 575.647 455.681C567.143 451.289 558.417 446.145 549.989 441.509C540.182 436.114 530.24 431.138 520.425 425.848C529.084 424.036 539.546 423.056 548.446 421.557C566.069 418.588 584.125 415.457 601.838 413.196Z"/><path fill="#0D0D0D" d="M528.015 327.191C550.405 333.747 573.455 341.624 595.834 348.553L629.001 359.033C636.954 361.533 644.729 363.53 652.541 366.564C655.542 371.025 658.805 380.479 661.137 385.595C667.76 400.13 674.302 419.38 681.637 433.194C645.557 389.638 578.023 353.671 527.665 328.577L528.015 327.191Z"/><path fill="#0D0D0D" fill-opacity="0.96078432" d="M531.314 139.113C532.881 152.614 535.601 166.413 537.595 179.863L550.68 267.262L555.917 300.45C556.414 303.74 557.704 309.74 557.625 312.635L557.184 312.873L556.28 312.574C555.51 310.18 556.646 309.401 555.803 307.571C554.365 304.447 553.889 300.746 553.349 297.345C551.195 283.796 548.954 270.281 547.008 256.701L540.018 210.597C537.661 194.509 536.173 177.725 532.486 161.876C531.571 157.942 531.11 146.958 529.711 144.228C529.079 144.665 529.296 144.466 528.251 144.458C529.318 142.299 529.998 141.133 531.314 139.113Z"/><path fill="#0D0D0D" fill-opacity="0.95686275" d="M527.665 328.577C527.068 328.196 524.459 326.807 524.345 326.211C524.771 325.625 527.434 326.986 528.015 327.191L527.665 328.577Z"/><path fill="#B5BBC8" fill-opacity="0.17647059" d="M415.04 171.905C415.173 171.658 415.54 170.619 415.925 170.893C416.21 171.852 415.788 173.577 415.607 174.557C415.408 173.675 415.219 172.791 415.04 171.905Z"/></svg>